<svg width="78" height="68" viewBox="0 0 78 68" fill="none" xmlns="http://www.w3.org/2000/svg">
<mask id="mask0" mask-type="alpha" maskUnits="userSpaceOnUse" x="0" y="0" width="78" height="68">
<path d="M67.5788 6.50001L39 56L10.4211 6.5L67.5788 6.50001Z" fill="black" stroke="white" stroke-width="12"/>
</mask>
<g mask="url(#mask0)">
<mask id="path-2-inside-1" fill="white">
<path fill-rule="evenodd" clip-rule="evenodd" d="M32.1313 56.1032L39 68L45.921 56.0125L39.0523 44.1157L32.1313 56.1032ZM45.9805 32.1157L52.8492 44.0125L77.9711 0.500008L64.2339 0.500006L45.9805 32.1157ZM50.3775 0.500005L39.0523 20.1157L27.7272 0.500003L50.3775 0.500005ZM32.1241 32.1157L25.2031 44.1032L0.0288374 0.500001L13.8708 0.500002L32.1241 32.1157Z"/>
</mask>
<path fill-rule="evenodd" clip-rule="evenodd" d="M32.1313 56.1032L39 68L45.921 56.0125L39.0523 44.1157L32.1313 56.1032ZM45.9805 32.1157L52.8492 44.0125L77.9711 0.500008L64.2339 0.500006L45.9805 32.1157ZM50.3775 0.500005L39.0523 20.1157L27.7272 0.500003L50.3775 0.500005ZM32.1241 32.1157L25.2031 44.1032L0.0288374 0.500001L13.8708 0.500002L32.1241 32.1157Z" fill="black"/>
<path d="M32.1313 56.1032L21.739 50.1032L18.2749 56.1032L21.739 62.1032L32.1313 56.1032ZM39 68L28.6077 74L39 92L49.3923 74L39 68ZM45.921 56.0125L56.3133 62.0125L59.7774 56.0125L56.3133 50.0125L45.921 56.0125ZM39.0523 44.1157L49.4446 38.1157L39.0523 20.1157L28.66 38.1157L39.0523 44.1157ZM52.8492 44.0125L42.4569 50.0125L52.8492 68.0125L63.2415 50.0125L52.8492 44.0125ZM45.9805 32.1157L35.5882 26.1157L32.1241 32.1157L35.5882 38.1157L45.9805 32.1157ZM77.9711 0.500008L88.3634 6.50001L98.7557 -11.5L77.9711 -11.5L77.9711 0.500008ZM64.2339 0.500006L64.2339 -11.5L57.3057 -11.5L53.8416 -5.49999L64.2339 0.500006ZM39.0523 20.1157L28.66 26.1157L39.0523 44.1157L49.4446 26.1157L39.0523 20.1157ZM50.3775 0.500005L60.7698 6.5L71.1621 -11.5L50.3775 -11.5L50.3775 0.500005ZM27.7272 0.500003L27.7272 -11.5L6.9426 -11.5L17.3349 6.5L27.7272 0.500003ZM25.2031 44.1032L14.8108 50.1032L25.2031 68.1032L35.5955 50.1032L25.2031 44.1032ZM32.1241 32.1157L42.5164 38.1157L45.9805 32.1157L42.5164 26.1157L32.1241 32.1157ZM0.0288374 0.500001L0.0288384 -11.5L-20.7558 -11.5L-10.3635 6.5L0.0288374 0.500001ZM13.8708 0.500002L24.2631 -5.5L20.799 -11.5L13.8708 -11.5L13.8708 0.500002ZM21.739 62.1032L28.6077 74L49.3923 62L42.5237 50.1032L21.739 62.1032ZM49.3923 74L56.3133 62.0125L35.5287 50.0125L28.6077 62L49.3923 74ZM56.3133 50.0125L49.4446 38.1157L28.66 50.1157L35.5287 62.0125L56.3133 50.0125ZM28.66 38.1157L21.739 50.1032L42.5237 62.1032L49.4446 50.1157L28.66 38.1157ZM63.2415 38.0125L56.3728 26.1157L35.5882 38.1157L42.4569 50.0125L63.2415 38.0125ZM67.5788 -5.49999L42.4569 38.0125L63.2415 50.0125L88.3634 6.50001L67.5788 -5.49999ZM64.2339 12.5L77.9711 12.5L77.9711 -11.5L64.2339 -11.5L64.2339 12.5ZM53.8416 -5.49999L35.5882 26.1157L56.3728 38.1157L74.6262 6.50001L53.8416 -5.49999ZM49.4446 26.1157L60.7698 6.5L39.9851 -5.49999L28.66 14.1157L49.4446 26.1157ZM49.4446 14.1157L38.1195 -5.5L17.3349 6.5L28.66 26.1157L49.4446 14.1157ZM27.7272 12.5L50.3775 12.5L50.3775 -11.5L27.7272 -11.5L27.7272 12.5ZM35.5955 50.1032L42.5164 38.1157L21.7318 26.1157L14.8108 38.1032L35.5955 50.1032ZM-10.3635 6.5L14.8108 50.1032L35.5955 38.1032L10.4211 -5.5L-10.3635 6.5ZM13.8708 -11.5L0.0288384 -11.5L0.0288363 12.5L13.8708 12.5L13.8708 -11.5ZM42.5164 26.1157L24.2631 -5.5L3.4785 6.5L21.7318 38.1157L42.5164 26.1157Z" fill="white" mask="url(#path-2-inside-1)"/>
</g>
</svg>
