<svg width="78" height="68" viewBox="0 0 78 68" fill="none" xmlns="http://www.w3.org/2000/svg">
<mask id="path-1-inside-1" fill="white">
<path fill-rule="evenodd" clip-rule="evenodd" d="M39 68L33.3427 58.2013L39.109 48.2138L44.7663 58.0125L39 68ZM50.5398 48.0125L44.8825 38.2138L66.6565 0.500007L77.9712 0.500008L50.5398 48.0125ZM49.4804 10.25L55.1095 0.500006L23.1084 0.500003L28.7376 10.25H49.4804ZM27.5692 48.2013L33.3355 38.2138L11.5614 0.5H0.028862L27.5692 48.2013Z"/>
</mask>
<path fill-rule="evenodd" clip-rule="evenodd" d="M39 68L33.3427 58.2013L39.109 48.2138L44.7663 58.0125L39 68ZM50.5398 48.0125L44.8825 38.2138L66.6565 0.500007L77.9712 0.500008L50.5398 48.0125ZM49.4804 10.25L55.1095 0.500006L23.1084 0.500003L28.7376 10.25H49.4804ZM27.5692 48.2013L33.3355 38.2138L11.5614 0.5H0.028862L27.5692 48.2013Z" fill="black"/>
<path d="M33.3427 58.2013L22.9504 52.2013L19.4863 58.2013L22.9504 64.2013L33.3427 58.2013ZM39 68L28.6077 74L39 92L49.3923 74L39 68ZM39.109 48.2138L49.5013 42.2138L39.109 24.2138L28.7167 42.2138L39.109 48.2138ZM44.7663 58.0125L55.1586 64.0125L58.6227 58.0125L55.1586 52.0125L44.7663 58.0125ZM44.8825 38.2138L34.4902 32.2138L31.0261 38.2138L34.4902 44.2138L44.8825 38.2138ZM50.5398 48.0125L40.1475 54.0125L50.5398 72.0125L60.9321 54.0125L50.5398 48.0125ZM66.6565 0.500007L66.6565 -11.5L59.7283 -11.5L56.2642 -5.49999L66.6565 0.500007ZM77.9712 0.500008L88.3635 6.50001L98.7558 -11.5L77.9712 -11.5L77.9712 0.500008ZM55.1095 0.500006L65.5018 6.50001L75.8941 -11.5L55.1095 -11.5L55.1095 0.500006ZM49.4804 10.25V22.25H56.4086L59.8727 16.25L49.4804 10.25ZM23.1084 0.500003L23.1084 -11.5L2.32383 -11.5L12.7161 6.5L23.1084 0.500003ZM28.7376 10.25L18.3453 16.25L21.8094 22.25H28.7376V10.25ZM33.3355 38.2138L43.7278 44.2138L47.1919 38.2138L43.7278 32.2138L33.3355 38.2138ZM27.5692 48.2013L17.1769 54.2013L27.5692 72.2013L37.9615 54.2013L27.5692 48.2013ZM11.5614 0.5L21.9537 -5.5L18.4896 -11.5H11.5614V0.5ZM0.028862 0.5V-11.5H-20.7557L-10.3634 6.5L0.028862 0.5ZM22.9504 64.2013L28.6077 74L49.3923 62L43.735 52.2013L22.9504 64.2013ZM28.7167 42.2138L22.9504 52.2013L43.735 64.2013L49.5013 54.2138L28.7167 42.2138ZM55.1586 52.0125L49.5013 42.2138L28.7167 54.2138L34.374 64.0125L55.1586 52.0125ZM49.3923 74L55.1586 64.0125L34.374 52.0125L28.6077 62L49.3923 74ZM34.4902 44.2138L40.1475 54.0125L60.9321 42.0125L55.2748 32.2138L34.4902 44.2138ZM56.2642 -5.49999L34.4902 32.2138L55.2748 44.2138L77.0488 6.50001L56.2642 -5.49999ZM77.9712 -11.5L66.6565 -11.5L66.6565 12.5L77.9712 12.5L77.9712 -11.5ZM60.9321 54.0125L88.3635 6.50001L67.5788 -5.49999L40.1475 42.0125L60.9321 54.0125ZM44.7172 -5.49999L39.0881 4.25001L59.8727 16.25L65.5018 6.50001L44.7172 -5.49999ZM23.1084 12.5L55.1095 12.5L55.1095 -11.5L23.1084 -11.5L23.1084 12.5ZM39.1299 4.25001L33.5007 -5.5L12.7161 6.5L18.3453 16.25L39.1299 4.25001ZM49.4804 -1.74999H28.7376V22.25H49.4804V-1.74999ZM22.9432 32.2138L17.1769 42.2013L37.9615 54.2013L43.7278 44.2138L22.9432 32.2138ZM1.16913 6.5L22.9432 44.2138L43.7278 32.2138L21.9537 -5.5L1.16913 6.5ZM0.028862 12.5H11.5614V-11.5H0.028862V12.5ZM37.9615 42.2013L10.4212 -5.5L-10.3634 6.5L17.1769 54.2013L37.9615 42.2013Z" fill="white" mask="url(#path-1-inside-1)"/>
</svg>
